<?xml version="1.0" standalone="no"?><svg xmlns="http://www.w3.org/2000/svg" viewBox="0 0 1440 320"><path fill="#5000ca" fill-opacity="1" d="M0,192L26.7,176C53.3,160,107,128,160,138.7C213.3,149,267,203,320,229.3C373.3,256,427,256,480,213.3C533.3,171,587,85,640,96C693.3,107,747,213,800,256C853.3,299,907,277,960,229.3C1013.3,181,1067,107,1120,112C1173.3,117,1227,203,1280,197.3C1333.3,192,1387,96,1413,48L1440,0L1440,320L1413.3,320C1386.7,320,1333,320,1280,320C1226.7,320,1173,320,1120,320C1066.7,320,1013,320,960,320C906.7,320,853,320,800,320C746.7,320,693,320,640,320C586.7,320,533,320,480,320C426.7,320,373,320,320,320C266.7,320,213,320,160,320C106.7,320,53,320,27,320L0,320Z"></path></svg>